<svg id="GR_outline_full" data-name="GR outline full" xmlns="http://www.w3.org/2000/svg" viewBox="0 0 279 279"><defs><style>.cls-1{fill:#306;}.cls-2{fill:#fff;}</style></defs><title>gr_logo</title><g id="circle"><circle class="cls-1" cx="139.5" cy="139.5" r="139.5"/></g><path class="cls-2" d="M116.86,164v-0.26c0-18.15-2.83-27.5-20.23-27.5v-5.74h43v33c0,28.87-12.15,43.95-48.67,43.95-36,0-60.7-29.86-60.7-67.34s20.65-68.42,53-68.42h51.43v36.71l-5.54,2.1C120,92.08,108.33,77.55,88.83,77.55c-23.14,0-30.25,30-30.25,62.14,0,30.14,8.78,61.95,31.92,61.95C117.64,201.64,116.86,181.75,116.86,164Z"/><path class="cls-2" d="M163,205.46H138.5V71.62h38.24c32.31,0,57.36,0,57.36,32.12,0,26-25.43,31.51-44.74,32.47l57.36,69.25h-31L163,136.41v69.06Zm0-104.59v29.79h14.15c18.16,0,28.68-1.91,28.68-26.39,0-26.39-11.09-26.93-29.25-26.93C163.55,77.36,163,90.74,163,100.88Z"/></svg>