<svg id="GR_outline_full" data-name="GR outline full" xmlns="http://www.w3.org/2000/svg" viewBox="0 0 279 279"><defs><style>.cls-1{fill:#fff;}.cls-2{fill:#306;}</style></defs><title>g_logo_white</title><g id="circle"><circle class="cls-1" cx="139.5" cy="139.5" r="139.5"/></g><path class="cls-2" d="M175.31,170.15v-.32c0-22.73-3.55-34.44-25.34-34.44V128.2h53.87v41.27c0,36.16-15.21,55-60.94,55-45.09,0-76-37.4-76-84.32S92.75,54.5,133.21,54.5h64.41v46l-6.94,2.64c-11.49-23-26.05-41.18-50.47-41.18-29,0-37.88,37.59-37.88,77.82,0,37.74,11,77.58,40,77.58C176.29,217.32,175.31,192.41,175.31,170.15Z" transform="translate(0.13 0)"/></svg>