<?xml version="1.0" encoding="utf-8"?>
<!-- Generator: Adobe Illustrator 20.1.0, SVG Export Plug-In . SVG Version: 6.00 Build 0)  -->
<svg version="1.1" id="Layer_1" xmlns="http://www.w3.org/2000/svg" xmlns:xlink="http://www.w3.org/1999/xlink" x="0px" y="0px"
	 viewBox="0 0 686.8 113" style="enable-background:new 0 0 686.8 113;" xml:space="preserve">
<style type="text/css">
	.st0{fill:#FFFFFF;}
</style>
<g>
	<path class="st0" d="M52.7,60.6V56c0-3.9-1.4-9-12.1-9v-3.5H67v20.8c0,17.7-10,22.9-32.3,22.9C14.9,87.2,0,68.6,0,45.7
		S12.6,4.1,32.4,4.1h31.5v22.5l-3.4,1.3c-5.6-11.2-16-20.1-28-20.1c-14.2,0-15.2,18.4-15.2,38c0,22,3.4,37.9,17.6,37.9
		C51.5,83.7,52.7,71.5,52.7,60.6z"/>
	<path class="st0" d="M102.1,84.4c10.4,0,17.9-10.7,17.9-23.3h3.5c0,12.6-7.8,26.2-21.4,26.2c-15.6,0-28.2-14.6-28.2-32.7
		S86.5,22,102.1,22c14.6,0,20.6,5.7,21.1,21.4l0.1,3.5l-34.4,5.9v1.9C88.9,70.1,89.9,84.4,102.1,84.4z M88.9,47.5v1.5l19.4-3.4
		c0-14.8-2.5-20.8-8.5-20.8C89.4,24.8,89.2,35.1,88.9,47.5z"/>
	<path class="st0" d="M146.7,48.3v37.6h-15V22.2h38.7v13.7l-3.4,1.3C166.1,26,161,26,155.5,26C146.7,26,146.7,35.7,146.7,48.3z"/>
	<path class="st0" d="M203.2,22c4.8,0,9.2,1.4,13.2,3.9v-3.6h23.4v3.5c-8.4,0-8.4,8.7-8.4,16v44.1h-15v-2.3c-4,2.5-8.4,3.7-13.2,3.7
		c-15.6,0-28.2-14.6-28.2-32.7S187.7,22,203.2,22z M203.2,84.4c4.7,0,9.2-1.8,13.2-4.8V29.7c-4-3-8.5-4.9-13.2-4.9
		c-13.3,0-14.8,14.4-14.8,29.9S189.9,84.4,203.2,84.4z"/>
	<path class="st0" d="M264.7,48.3v37.6h-15V22.2h38.7v13.7l-3.4,1.3C284.1,26,279,26,273.5,26C264.7,26,264.7,35.7,264.7,48.3z"/>
	<path class="st0" d="M321.2,22c4.8,0,9.2,1.4,13.2,3.9V0h23.4v3.5c-8.4,0-8.4,8.7-8.4,16v66.4h-15v-2.3c-4,2.5-8.4,3.7-13.2,3.7
		c-15.6,0-28.2-14.6-28.2-32.7S305.6,22,321.2,22z M321.2,84.4c4.7,0,9.2-1.8,13.2-4.8V29.7c-4-3-8.5-4.9-13.2-4.9
		c-13.3,0-14.8,14.4-14.8,29.9S307.9,84.4,321.2,84.4z"/>
	<path class="st0" d="M417.1,86h-15V4.1h23.4c19.8,0,35.1,0,35.1,19.7c0,15.9-15.6,19-27.4,19.5L468.4,86h-19l-32.3-42.6L417.1,86
		L417.1,86z M417.1,22v17.9h8.7c11.1,0,17.6-1.2,17.6-16.2c0-16.2-6.8-16.2-17.9-16.2C417.4,7.6,417.1,15.8,417.1,22z"/>
	<path class="st0" d="M498.2,84.4c10.4,0,17.9-10.7,17.9-23.3h3.5c0,12.6-7.8,26.2-21.4,26.2c-15.6,0-28.2-14.6-28.2-32.7
		S482.6,22,498.2,22c14.6,0,20.6,5.7,21.1,21.4l0.1,3.5L485,52.8v1.9C485,70.1,486,84.4,498.2,84.4z M485,47.5v1.5l19.4-3.4
		c0-14.8-2.5-20.8-8.5-20.8C485.6,24.8,485.3,35.1,485,47.5z"/>
	<path class="st0" d="M526.5,22.2h28.6l0.9,3v0.2c-6,1.6-9.6,3.5-9.6,11c0,1.3,0.1,2.6,0.4,3.7l12.6,40.5l19.1-58.5h3.3l-19.5,61.1
		c-3.7,15-8.8,29.6-22.5,29.6h-9.1V99.5l3.4-1.3c0.9,11.2,2.5,11.2,5.6,11.2h0.1c3,0,8-9.6,8-21.4L526.5,22.2z"/>
	<path class="st0" d="M610.8,84.4c10.4,0,17.9-10.7,17.9-23.3h3.5c0,12.6-7.8,26.2-21.4,26.2c-15.6,0-28.2-14.6-28.2-32.7
		S595.3,22,610.8,22c14.6,0,20.6,5.7,21.1,21.4l0.1,3.5l-34.4,5.9v1.9C597.6,70.1,598.7,84.4,610.8,84.4z M597.6,47.5v1.5l19.4-3.4
		c0-14.8-2.5-20.8-8.5-20.8C598.2,24.8,598,35.1,597.6,47.5z"/>
	<path class="st0" d="M679.9,73.8c0-8-4.9-9.9-13.1-11c-16.4-2.2-24.9-7.7-24.9-19.9c0-11.9,11.5-20.6,23.2-20.6h19.7v13.8l-3.4,1.3
		c-0.9-10.9-12.5-11.6-15.9-11.6c-6.2,0-16.4,4.6-16.4,11.7c0,4.9,3.2,6.6,15.1,7.7c14.6,1.4,22.7,6.2,22.7,22.6
		c0,15.2-8.4,19.3-22.7,19.3c-15.1,0-21.2-3.4-21.2-3.4V69.5l3.4-1.3c0.9,11.2,10.5,15.8,17.4,15.8
		C677.9,84.1,679.9,76.6,679.9,73.8z"/>
</g>
</svg>
