<svg id="GR_outline_full" data-name="GR outline full" xmlns="http://www.w3.org/2000/svg" viewBox="0 0 279 279"><defs><style>.cls-1{fill:#306;}</style></defs><title>g_logo</title><path class="cls-1" d="M139.37,0a139.5,139.5,0,1,0,139.5,139.5A139.5,139.5,0,0,0,139.37,0Zm63.48,174.47c0,36.16-15.21,55-60.94,55-45.09,0-76-37.4-76-84.32S91.74,59.5,132.21,59.5h64.41v46l-6.94,2.64c-11.49-23-26.05-41.18-50.47-41.18-29,0-37.88,37.59-37.88,77.82,0,37.74,11,77.58,40,77.58,34,0,33-24.9,33-47.17v-.32c0-22.73-3.55-34.44-25.34-34.44V133.2h53.87Z"/></svg>